<svg width="40" height="40" viewBox="0 0 40 40" fill="none" xmlns="http://www.w3.org/2000/svg">
  <defs>
    <linearGradient id="simpleGradient" x1="0%" y1="0%" x2="100%" y2="100%">
      <stop offset="0%" style="stop-color:#8b5cf6;stop-opacity:1" />
      <stop offset="100%" style="stop-color:#10b981;stop-opacity:1" />
    </linearGradient>
  </defs>
  
  <!-- Versión simplificada para favicon -->
  <circle cx="20" cy="20" r="18" fill="url(#simpleGradient)"/>
  
  <!-- "S" simplificada -->
  <path d="M 23 12 
           Q 28 12, 28 16
           Q 28 19, 24 20
           Q 20 21, 20 23
           L 16 23
           Q 16 19, 20 18
           Q 24 17, 24 15
           Q 24 13, 21 13
           L 14 13
           Q 12 13, 12 15
           L 10 15
           Q 10 11, 14 11
           Z" 
        fill="white"/>
  
  <path d="M 17 28
           Q 12 28, 12 24
           Q 12 21, 16 20
           Q 20 19, 20 17
           L 24 17
           Q 24 21, 20 22
           Q 16 23, 16 25
           Q 16 27, 19 27
           L 26 27
           Q 28 27, 28 25
           L 30 25
           Q 30 29, 26 29
           Z"
        fill="white"/>
</svg>
